<svg width="20" height="20" viewBox="0 0 20 20" fill="none" xmlns="http://www.w3.org/2000/svg">
<path d="M2.5 17.5H3.5625L11.375 9.6875L10.3125 8.625L2.5 16.4375V17.5ZM1.75379 19C1.54293 19 1.36458 18.9285 1.21875 18.7855C1.07292 18.6425 1 18.4652 1 18.2538V16.4443C1 16.2453 1.03472 16.0556 1.10417 15.875C1.17361 15.6944 1.28472 15.5278 1.4375 15.375L11.375 5.4375C11.5278 5.28472 11.6933 5.17361 11.8716 5.10417C12.0499 5.03472 12.2374 5 12.4341 5C12.6308 5 12.8194 5.03472 13 5.10417C13.1806 5.17361 13.3472 5.28472 13.5 5.4375L14.5625 6.5C14.7153 6.65278 14.8264 6.81944 14.8958 7C14.9653 7.18056 15 7.36487 15 7.55296C15 7.75357 14.9651 7.94478 14.8954 8.12658C14.8256 8.3084 14.7147 8.47454 14.5625 8.625L4.625 18.5625C4.47222 18.7153 4.3059 18.8264 4.12604 18.8958C3.94619 18.9653 3.75704 19 3.55856 19H1.75379ZM10.8344 9.16556L10.3125 8.625L11.375 9.6875L10.8344 9.16556Z" fill="#757575"/>
</svg>
