<svg width="14" height="17" viewBox="0 0 14 17" fill="none" xmlns="http://www.w3.org/2000/svg">
<path d="M4.30799 5.92285C4.4508 5.92285 4.58776 5.97958 4.68874 6.08056C4.78972 6.18154 4.84645 6.3185 4.84645 6.46131V12.9229C4.84645 13.0657 4.78972 13.2026 4.68874 13.3036C4.58776 13.4046 4.4508 13.4613 4.30799 13.4613C4.16518 13.4613 4.02822 13.4046 3.92724 13.3036C3.82626 13.2026 3.76953 13.0657 3.76953 12.9229V6.46131C3.76953 6.3185 3.82626 6.18154 3.92724 6.08056C4.02822 5.97958 4.16518 5.92285 4.30799 5.92285ZM7.0003 5.92285C7.14311 5.92285 7.28007 5.97958 7.38105 6.08056C7.48203 6.18154 7.53876 6.3185 7.53876 6.46131V12.9229C7.53876 13.0657 7.48203 13.2026 7.38105 13.3036C7.28007 13.4046 7.14311 13.4613 7.0003 13.4613C6.85749 13.4613 6.72053 13.4046 6.61955 13.3036C6.51857 13.2026 6.46184 13.0657 6.46184 12.9229V6.46131C6.46184 6.3185 6.51857 6.18154 6.61955 6.08056C6.72053 5.97958 6.85749 5.92285 7.0003 5.92285ZM10.2311 6.46131C10.2311 6.3185 10.1743 6.18154 10.0734 6.08056C9.97238 5.97958 9.83542 5.92285 9.69261 5.92285C9.5498 5.92285 9.41284 5.97958 9.31186 6.08056C9.21088 6.18154 9.15415 6.3185 9.15415 6.46131V12.9229C9.15415 13.0657 9.21088 13.2026 9.31186 13.3036C9.41284 13.4046 9.5498 13.4613 9.69261 13.4613C9.83542 13.4613 9.97238 13.4046 10.0734 13.3036C10.1743 13.2026 10.2311 13.0657 10.2311 12.9229V6.46131Z" fill="#757575"/>
<path d="M14 3.23077C14 3.51639 13.8865 3.79031 13.6846 3.99227C13.4826 4.19423 13.2087 4.30769 12.9231 4.30769H12.3846V14C12.3846 14.5712 12.1577 15.1191 11.7538 15.523C11.3498 15.9269 10.802 16.1538 10.2308 16.1538H3.76923C3.198 16.1538 2.65016 15.9269 2.24623 15.523C1.84231 15.1191 1.61538 14.5712 1.61538 14V4.30769H1.07692C0.791305 4.30769 0.517386 4.19423 0.315423 3.99227C0.113461 3.79031 0 3.51639 0 3.23077V2.15385C0 1.86823 0.113461 1.59431 0.315423 1.39235C0.517386 1.19038 0.791305 1.07692 1.07692 1.07692H4.84615C4.84615 0.791305 4.95962 0.517386 5.16158 0.315423C5.36354 0.113461 5.63746 0 5.92308 0L8.07692 0C8.36254 0 8.63646 0.113461 8.83842 0.315423C9.04039 0.517386 9.15385 0.791305 9.15385 1.07692H12.9231C13.2087 1.07692 13.4826 1.19038 13.6846 1.39235C13.8865 1.59431 14 1.86823 14 2.15385V3.23077ZM2.81938 4.30769L2.69231 4.37123V14C2.69231 14.2856 2.80577 14.5595 3.00773 14.7615C3.20969 14.9635 3.48361 15.0769 3.76923 15.0769H10.2308C10.5164 15.0769 10.7903 14.9635 10.9923 14.7615C11.1942 14.5595 11.3077 14.2856 11.3077 14V4.37123L11.1806 4.30769H2.81938ZM1.07692 3.23077H12.9231V2.15385H1.07692V3.23077Z" fill="#757575"/>
</svg>
